<svg version="1.2" xmlns="http://www.w3.org/2000/svg" viewBox="0 0 20 20" width="20" height="20">
	<title>cloud-icon-svg</title>
	<style>
		.s0 { fill: none;stroke: #9cadaf;stroke-linecap: round;stroke-linejoin: round;stroke-width: 2 } 
	</style>
	<path id="Layer" fill-rule="evenodd" class="s0" d="m13 15h3c0.8 0 1.6-0.3 2.1-0.9 0.6-0.5 0.9-1.3 0.9-2.1 0-0.8-0.3-1.6-0.9-2.1-0.5-0.6-1.3-0.9-2.1-0.9q0-0.1 0-0.1 0-0.1 0-0.1 0-0.1 0-0.2 0 0 0-0.1c0-1.3-0.5-2.6-1.4-3.6-0.8-1-2-1.7-3.4-1.8-1.3-0.2-2.6 0.1-3.7 0.8-1.1 0.7-1.9 1.8-2.3 3.1q-0.1 0-0.2 0c-1.1 0-2.1 0.4-2.8 1.2-0.8 0.7-1.2 1.7-1.2 2.8 0 1.1 0.4 2.1 1.2 2.8 0.7 0.8 1.7 1.2 2.8 1.2h2.2m2.8 2v-9m0 0l-2 2m2-2l2 2"/>
</svg>